# Blender 4.1.1
# www.blender.org
mtllib prism.mtl
o 立方体
v 1.005119 -1.000000 -0.994855
v 1.005119 1.000000 -0.994855
v -0.003768 0.001569 0.999994
v -0.994855 -1.000000 -1.005119
v -0.994855 1.000000 -1.005119
v 0.005132 -1.000000 -0.999987
v 0.005132 1.000000 -0.999987
v 1.005119 0.000000 -0.994855
v -0.994855 0.000000 -1.005119
v 0.005132 0.000000 -0.999987
vn 0.0051 -0.0000 -1.0000
vn -0.0023 -0.8941 0.4478
vn 0.8924 -0.0000 0.4513
vn -0.0023 0.8947 0.4466
vn -0.8965 -0.0000 0.4431
vt 0.500000 0.875000
vt 0.625000 0.875000
vt 0.625000 1.000000
vt 0.500000 1.000000
vt 0.500000 0.750000
vt 0.625000 0.750000
vt 0.375000 0.750000
vt 0.375000 0.875000
vt 0.375000 1.000000
vt 0.000000 0.000000
s 0
usemtl マテリアル.001
f 10/1/1 7/2/1 2/3/1 8/4/1
f 9/5/1 5/6/1 7/2/1 10/1/1
f 4/7/1 9/5/1 10/1/1 6/8/1
f 6/8/1 10/1/1 8/4/1 1/9/1
f 3/10/2 4/7/2 6/8/2 1/9/2
f 3/10/3 1/9/3 8/4/3 2/3/3
f 2/3/4 7/2/4 5/6/4 3/10/4
f 3/10/5 5/6/5 9/5/5 4/7/5
