# Blender 4.1.1
# www.blender.org
mtllib gole.mtl
o Cube
v 0.763071 1.677523 -1.609879
v 1.000000 -1.000000 -1.000000
v 1.793404 0.852178 1.478654
v 0.707735 -0.696177 0.982212
v -1.317088 0.338314 -0.245639
v -0.952595 -1.435224 -0.894765
v -1.196782 0.315179 0.320006
v -1.310661 -1.317964 1.160684
vn -0.3191 0.8961 0.3085
vn -0.2308 0.1903 0.9542
vn -0.9931 -0.0780 -0.0873
vn 0.2641 -0.9540 0.1420
vn 0.9668 -0.1985 -0.1611
vn -0.3281 -0.0360 -0.9440
vt 0.625000 0.500000
vt 0.875000 0.500000
vt 0.875000 0.750000
vt 0.625000 0.750000
vt 0.375000 0.750000
vt 0.625000 1.000000
vt 0.375000 1.000000
vt 0.375000 0.000000
vt 0.625000 0.000000
vt 0.625000 0.250000
vt 0.375000 0.250000
vt 0.125000 0.500000
vt 0.375000 0.500000
vt 0.125000 0.750000
s 0
usemtl Material
f 1/1/1 5/2/1 7/3/1 3/4/1
f 4/5/2 3/4/2 7/6/2 8/7/2
f 8/8/3 7/9/3 5/10/3 6/11/3
f 6/12/4 2/13/4 4/5/4 8/14/4
f 2/13/5 1/1/5 3/4/5 4/5/5
f 6/11/6 5/10/6 1/1/6 2/13/6
