# Blender 4.4.1
# www.blender.org
mtllib lightStand.mtl
o 円柱.002
v -0.735359 0.735775 -0.485812
v 0.735359 0.735775 -0.485812
v -0.735359 0.640997 -0.476477
v 0.735359 0.640997 -0.476477
v -0.735359 0.549862 -0.448832
v 0.735359 0.549862 -0.448832
v -0.735359 0.465872 -0.403938
v 0.735359 0.465872 -0.403938
v -0.735359 0.392254 -0.343521
v 0.735359 0.392253 -0.343521
v -0.735359 0.331837 -0.269903
v 0.735359 0.331837 -0.269903
v -0.735359 0.286943 -0.185912
v 0.735359 0.286943 -0.185912
v -0.735359 0.259297 -0.094777
v 0.735359 0.259297 -0.094777
v -0.735359 0.249962 0.000000
v 0.735359 0.249962 0.000000
v -0.735359 0.259297 0.094777
v 0.735359 0.259297 0.094777
v -0.735359 0.286943 0.185912
v 0.735359 0.286943 0.185912
v -0.735359 0.331837 0.269903
v 0.735359 0.331837 0.269903
v -0.735359 0.392254 0.343521
v 0.735359 0.392253 0.343521
v -0.735359 0.465872 0.403938
v 0.735359 0.465872 0.403938
v -0.735359 0.549862 0.448832
v 0.735359 0.549862 0.448832
v -0.735359 0.640997 0.476477
v 0.735359 0.640997 0.476477
v -0.735359 0.735775 0.485812
v 0.735359 0.735775 0.485812
v -0.735359 0.830552 0.476477
v 0.735359 0.830552 0.476477
v -0.735359 0.921687 0.448832
v 0.735359 0.921687 0.448832
v -0.735359 1.005677 0.403938
v 0.735359 1.005677 0.403938
v -0.735359 1.079296 0.343521
v 0.735359 1.079296 0.343521
v -0.735359 1.139713 0.269903
v 0.735359 1.139713 0.269903
v -0.735359 1.184606 0.185912
v 0.735359 1.184606 0.185912
v -0.735359 1.212252 0.094777
v 0.735359 1.212252 0.094777
v -0.735359 1.221587 0.000000
v 0.735359 1.221587 0.000000
v -0.735359 1.212252 -0.094777
v 0.735359 1.212252 -0.094777
v -0.735359 1.184606 -0.185912
v 0.735359 1.184606 -0.185912
v -0.735359 1.139713 -0.269903
v 0.735359 1.139713 -0.269903
v -0.735359 1.079296 -0.343521
v 0.735359 1.079296 -0.343521
v -0.735359 1.005677 -0.403938
v 0.735359 1.005677 -0.403938
v -0.735359 0.921687 -0.448832
v 0.735359 0.921687 -0.448832
v -0.735359 0.830552 -0.476477
v 0.735359 0.830552 -0.476477
v 0.000000 -0.046936 -0.811929
v 0.000000 0.046936 -0.811929
v 0.158400 -0.046936 -0.796328
v 0.158400 0.046936 -0.796328
v 0.310712 -0.046936 -0.750125
v 0.310712 0.046936 -0.750125
v 0.451084 -0.046936 -0.675094
v 0.451084 0.046936 -0.675094
v 0.574121 -0.046936 -0.574121
v 0.574121 0.046936 -0.574121
v 0.675095 -0.046936 -0.451084
v 0.675095 0.046936 -0.451084
v 0.750125 -0.046936 -0.310712
v 0.750125 0.046936 -0.310712
v 0.796328 -0.046936 -0.158400
v 0.796328 0.046936 -0.158400
v 0.811929 -0.046936 0.000000
v 0.811929 0.046936 0.000000
v 0.796328 -0.046936 0.158400
v 0.796328 0.046936 0.158400
v 0.750125 -0.046936 0.310712
v 0.750125 0.046936 0.310712
v 0.675095 -0.046936 0.451084
v 0.675095 0.046936 0.451084
v 0.574121 -0.046936 0.574121
v 0.574121 0.046936 0.574121
v 0.451084 -0.046936 0.675094
v 0.451084 0.046936 0.675094
v 0.310712 -0.046936 0.750125
v 0.310712 0.046936 0.750125
v 0.158400 -0.046936 0.796328
v 0.158400 0.046936 0.796328
v 0.000000 -0.046936 0.811929
v 0.000000 0.046936 0.811929
v -0.158400 -0.046936 0.796328
v -0.158400 0.046936 0.796328
v -0.310712 -0.046936 0.750125
v -0.310712 0.046936 0.750125
v -0.451084 -0.046936 0.675094
v -0.451084 0.046936 0.675094
v -0.574121 -0.046936 0.574121
v -0.574121 0.046936 0.574121
v -0.675095 -0.046936 0.451084
v -0.675095 0.046936 0.451084
v -0.750125 -0.046936 0.310712
v -0.750125 0.046936 0.310712
v -0.796328 -0.046936 0.158400
v -0.796328 0.046936 0.158400
v -0.811929 -0.046936 0.000000
v -0.811929 0.046936 0.000000
v -0.796328 -0.046936 -0.158400
v -0.796328 0.046936 -0.158400
v -0.750125 -0.046936 -0.310712
v -0.750125 0.046936 -0.310712
v -0.675095 -0.046936 -0.451084
v -0.675095 0.046936 -0.451084
v -0.574121 -0.046936 -0.574121
v -0.574121 0.046936 -0.574121
v -0.451084 -0.046936 -0.675094
v -0.451084 0.046936 -0.675094
v -0.310712 -0.046936 -0.750125
v -0.310712 0.046936 -0.750125
v -0.158400 -0.046936 -0.796328
v -0.158400 0.046936 -0.796328
v 0.000000 0.033429 -0.332970
v 0.000000 0.514436 -0.332970
v 0.064959 0.033429 -0.326572
v 0.064959 0.514436 -0.326572
v 0.127422 0.033429 -0.307624
v 0.127422 0.514436 -0.307624
v 0.184988 0.033429 -0.276854
v 0.184988 0.514436 -0.276854
v 0.235445 0.033429 -0.235445
v 0.235445 0.514436 -0.235445
v 0.276855 0.033429 -0.184988
v 0.276855 0.514436 -0.184988
v 0.307624 0.033429 -0.127422
v 0.307624 0.514436 -0.127422
v 0.326572 0.033429 -0.064959
v 0.326572 0.514436 -0.064959
v 0.332970 0.033429 0.000000
v 0.332970 0.514436 0.000000
v 0.326572 0.033429 0.064959
v 0.326572 0.514436 0.064959
v 0.307624 0.033429 0.127422
v 0.307624 0.514436 0.127422
v 0.276855 0.033429 0.184988
v 0.276855 0.514436 0.184988
v 0.235445 0.033429 0.235445
v 0.235445 0.514436 0.235445
v 0.184988 0.033429 0.276854
v 0.184988 0.514436 0.276854
v 0.127422 0.033429 0.307624
v 0.127422 0.514436 0.307624
v 0.064959 0.033429 0.326572
v 0.064959 0.514436 0.326572
v 0.000000 0.033429 0.332970
v 0.000000 0.514436 0.332970
v -0.064959 0.033429 0.326572
v -0.064959 0.514436 0.326572
v -0.127422 0.033429 0.307624
v -0.127422 0.514436 0.307624
v -0.184988 0.033429 0.276854
v -0.184988 0.514436 0.276854
v -0.235445 0.033429 0.235445
v -0.235445 0.514436 0.235445
v -0.276855 0.033429 0.184988
v -0.276855 0.514436 0.184988
v -0.307624 0.033429 0.127422
v -0.307624 0.514436 0.127422
v -0.326572 0.033429 0.064959
v -0.326572 0.514436 0.064959
v -0.332970 0.033429 0.000000
v -0.332970 0.514436 0.000000
v -0.326572 0.033429 -0.064959
v -0.326572 0.514436 -0.064959
v -0.307624 0.033429 -0.127422
v -0.307624 0.514436 -0.127422
v -0.276855 0.033429 -0.184988
v -0.276855 0.514436 -0.184988
v -0.235445 0.033429 -0.235445
v -0.235445 0.514436 -0.235445
v -0.184988 0.033429 -0.276854
v -0.184988 0.514436 -0.276854
v -0.127422 0.033429 -0.307624
v -0.127422 0.514436 -0.307624
v -0.064959 0.033429 -0.326572
v -0.064959 0.514436 -0.326572
vn -0.6857 -0.0000 -0.7279
vn 0.6857 -0.0000 -0.7279
vn -0.6857 -0.1420 -0.7139
vn 0.6857 -0.1420 -0.7139
vn -0.6857 -0.2785 -0.6725
vn 0.6857 -0.2785 -0.6725
vn -0.6857 -0.4044 -0.6052
vn 0.6857 -0.4044 -0.6052
vn -0.6857 -0.5147 -0.5147
vn 0.6857 -0.5147 -0.5147
vn -0.6857 -0.6052 -0.4044
vn 0.6857 -0.6052 -0.4044
vn -0.6857 -0.6725 -0.2785
vn 0.6857 -0.6725 -0.2785
vn -0.6857 -0.7139 -0.1420
vn 0.6857 -0.7139 -0.1420
vn -0.6857 -0.7279 -0.0000
vn 0.6857 -0.7279 -0.0000
vn -0.6857 -0.7139 0.1420
vn 0.6857 -0.7139 0.1420
vn -0.6857 -0.6725 0.2785
vn 0.6857 -0.6725 0.2785
vn -0.6857 -0.6052 0.4044
vn 0.6857 -0.6052 0.4044
vn -0.6857 -0.5147 0.5147
vn 0.6857 -0.5147 0.5147
vn -0.6857 -0.4044 0.6052
vn 0.6857 -0.4044 0.6052
vn -0.6857 -0.2785 0.6725
vn 0.6857 -0.2785 0.6725
vn -0.6857 -0.1420 0.7139
vn 0.6857 -0.1420 0.7139
vn -0.6857 -0.0000 0.7279
vn 0.6857 -0.0000 0.7279
vn -0.6857 0.1420 0.7139
vn 0.6857 0.1420 0.7139
vn -0.6857 0.2785 0.6725
vn 0.6857 0.2785 0.6725
vn -0.6857 0.4044 0.6052
vn 0.6857 0.4044 0.6052
vn -0.6857 0.5147 0.5147
vn 0.6857 0.5147 0.5147
vn -0.6857 0.6052 0.4044
vn 0.6857 0.6052 0.4044
vn -0.6857 0.6725 0.2785
vn 0.6857 0.6725 0.2785
vn -0.6857 0.7139 0.1420
vn 0.6857 0.7139 0.1420
vn -0.6857 0.7279 -0.0000
vn 0.6857 0.7279 -0.0000
vn -0.6857 0.7139 -0.1420
vn 0.6857 0.7139 -0.1420
vn -0.6857 0.6725 -0.2785
vn 0.6857 0.6725 -0.2785
vn -0.6857 0.6052 -0.4044
vn 0.6857 0.6052 -0.4044
vn -0.6857 0.5147 -0.5147
vn 0.6857 0.5147 -0.5147
vn -0.6857 0.4044 -0.6052
vn 0.6857 0.4044 -0.6052
vn -0.6857 0.2785 -0.6725
vn 0.6857 0.2785 -0.6725
vn -0.6857 0.1420 -0.7139
vn 0.6857 0.1420 -0.7139
vn -0.0000 -0.6857 -0.7279
vn -0.0000 0.6857 -0.7279
vn 0.1420 -0.6857 -0.7139
vn 0.1420 0.6857 -0.7139
vn 0.2785 -0.6857 -0.6725
vn 0.2785 0.6857 -0.6725
vn 0.4044 -0.6857 -0.6052
vn 0.4044 0.6857 -0.6052
vn 0.5147 -0.6857 -0.5147
vn 0.5147 0.6857 -0.5147
vn 0.6052 -0.6857 -0.4044
vn 0.6052 0.6857 -0.4044
vn 0.6725 -0.6857 -0.2785
vn 0.6725 0.6857 -0.2785
vn 0.7139 -0.6857 -0.1420
vn 0.7139 0.6857 -0.1420
vn 0.7279 -0.6857 -0.0000
vn 0.7279 0.6857 -0.0000
vn 0.7139 -0.6857 0.1420
vn 0.7139 0.6857 0.1420
vn 0.6725 -0.6857 0.2785
vn 0.6725 0.6857 0.2785
vn 0.6052 -0.6857 0.4044
vn 0.6052 0.6857 0.4044
vn 0.5147 -0.6857 0.5147
vn 0.5147 0.6857 0.5147
vn 0.4044 -0.6857 0.6052
vn 0.4044 0.6857 0.6052
vn 0.2785 -0.6857 0.6725
vn 0.2785 0.6857 0.6725
vn 0.1420 -0.6857 0.7139
vn 0.1420 0.6857 0.7139
vn -0.0000 -0.6857 0.7279
vn -0.0000 0.6857 0.7279
vn -0.1420 -0.6857 0.7139
vn -0.1420 0.6857 0.7139
vn -0.2785 -0.6857 0.6725
vn -0.2785 0.6857 0.6725
vn -0.4044 -0.6857 0.6052
vn -0.4044 0.6857 0.6052
vn -0.5147 -0.6857 0.5147
vn -0.5147 0.6857 0.5147
vn -0.6052 -0.6857 0.4044
vn -0.6052 0.6857 0.4044
vn -0.6725 -0.6857 0.2785
vn -0.6725 0.6857 0.2785
vn -0.7139 -0.6857 0.1420
vn -0.7139 0.6857 0.1420
vn -0.7279 -0.6857 -0.0000
vn -0.7279 0.6857 -0.0000
vn -0.7139 -0.6857 -0.1420
vn -0.7139 0.6857 -0.1420
vn -0.6725 -0.6857 -0.2785
vn -0.6725 0.6857 -0.2785
vn -0.6052 -0.6857 -0.4044
vn -0.6052 0.6857 -0.4044
vn -0.5147 -0.6857 -0.5147
vn -0.5147 0.6857 -0.5147
vn -0.4044 -0.6857 -0.6052
vn -0.4044 0.6857 -0.6052
vn -0.2785 -0.6857 -0.6725
vn -0.2785 0.6857 -0.6725
vn -0.1420 -0.6857 -0.7139
vn -0.1420 0.6857 -0.7139
vt 0.010062 0.010085
vt 0.292701 0.010085
vt 0.292701 0.028387
vt 0.010062 0.028387
vt 0.292701 0.046690
vt 0.010062 0.046690
vt 0.292701 0.064992
vt 0.010062 0.064992
vt 0.292701 0.083294
vt 0.010062 0.083294
vt 0.292701 0.101596
vt 0.010062 0.101596
vt 0.292701 0.119898
vt 0.010062 0.119898
vt 0.292701 0.138200
vt 0.010062 0.138200
vt 0.292701 0.156503
vt 0.010062 0.156503
vt 0.292701 0.174805
vt 0.010062 0.174805
vt 0.292701 0.193107
vt 0.010062 0.193107
vt 0.292701 0.211409
vt 0.010062 0.211409
vt 0.292701 0.229711
vt 0.010062 0.229711
vt 0.292701 0.248013
vt 0.010062 0.248013
vt 0.292701 0.266316
vt 0.010062 0.266316
vt 0.292701 0.284618
vt 0.010062 0.284618
vt 0.292701 0.302920
vt 0.010062 0.302920
vt 0.292701 0.321222
vt 0.010062 0.321222
vt 0.292701 0.339524
vt 0.010062 0.339524
vt 0.292701 0.357826
vt 0.010062 0.357826
vt 0.292701 0.376128
vt 0.010062 0.376129
vt 0.292701 0.394431
vt 0.010062 0.394431
vt 0.292701 0.412733
vt 0.010062 0.412733
vt 0.292701 0.431035
vt 0.010062 0.431035
vt 0.292701 0.449337
vt 0.010062 0.449337
vt 0.292701 0.467639
vt 0.010062 0.467639
vt 0.292701 0.485941
vt 0.010062 0.485942
vt 0.292701 0.504244
vt 0.010062 0.504244
vt 0.292701 0.522546
vt 0.010062 0.522546
vt 0.292701 0.540848
vt 0.010062 0.540848
vt 0.292701 0.559150
vt 0.010062 0.559150
vt 0.129950 0.798298
vt 0.112000 0.801869
vt 0.093698 0.801869
vt 0.075747 0.798298
vt 0.058838 0.791294
vt 0.043621 0.781126
vt 0.030679 0.768184
vt 0.020511 0.752967
vt 0.013507 0.736058
vt 0.009936 0.718107
vt 0.009936 0.699805
vt 0.013507 0.681855
vt 0.020511 0.664946
vt 0.030679 0.649728
vt 0.043621 0.636786
vt 0.058838 0.626618
vt 0.075747 0.619614
vt 0.093698 0.616044
vt 0.112000 0.616044
vt 0.129950 0.619614
vt 0.146859 0.626618
vt 0.162077 0.636786
vt 0.175019 0.649728
vt 0.185187 0.664946
vt 0.192191 0.681855
vt 0.195761 0.699805
vt 0.195761 0.718107
vt 0.192191 0.736058
vt 0.185187 0.752967
vt 0.175019 0.768184
vt 0.162077 0.781126
vt 0.146859 0.791294
vt 0.292701 0.577452
vt 0.010062 0.577452
vt 0.292701 0.595755
vt 0.010062 0.595755
vt 0.653620 0.768181
vt 0.636711 0.761177
vt 0.621493 0.751009
vt 0.608552 0.738067
vt 0.598383 0.722850
vt 0.591380 0.705941
vt 0.587809 0.687990
vt 0.587809 0.669688
vt 0.591379 0.651738
vt 0.598383 0.634829
vt 0.608552 0.619611
vt 0.621493 0.606669
vt 0.636711 0.596501
vt 0.653620 0.589497
vt 0.671570 0.585927
vt 0.689872 0.585926
vt 0.707823 0.589497
vt 0.724732 0.596501
vt 0.739950 0.606669
vt 0.752891 0.619611
vt 0.763059 0.634828
vt 0.770063 0.651737
vt 0.773634 0.669688
vt 0.773634 0.687990
vt 0.770063 0.705940
vt 0.763059 0.722850
vt 0.752891 0.738067
vt 0.739950 0.751009
vt 0.724732 0.761177
vt 0.707823 0.768181
vt 0.689873 0.771752
vt 0.671570 0.771751
vt 0.797005 0.011282
vt 0.815045 0.011282
vt 0.815045 0.041870
vt 0.797005 0.041870
vt 0.815045 0.072458
vt 0.797005 0.072458
vt 0.815045 0.103046
vt 0.797005 0.103046
vt 0.815045 0.133634
vt 0.797005 0.133634
vt 0.815045 0.164222
vt 0.797005 0.164222
vt 0.815045 0.194811
vt 0.797005 0.194811
vt 0.815045 0.225399
vt 0.797005 0.225399
vt 0.815045 0.255987
vt 0.797005 0.255987
vt 0.815045 0.286575
vt 0.797005 0.286575
vt 0.815045 0.317163
vt 0.797005 0.317163
vt 0.815045 0.347751
vt 0.797005 0.347751
vt 0.815045 0.378339
vt 0.797005 0.378339
vt 0.815045 0.408927
vt 0.797005 0.408927
vt 0.815045 0.439515
vt 0.797005 0.439515
vt 0.815045 0.470103
vt 0.797005 0.470103
vt 0.815045 0.500691
vt 0.797005 0.500691
vt 0.815045 0.531279
vt 0.797005 0.531279
vt 0.815045 0.561868
vt 0.797005 0.561868
vt 0.815045 0.592456
vt 0.797005 0.592456
vt 0.815045 0.623044
vt 0.797005 0.623044
vt 0.815045 0.653632
vt 0.797005 0.653632
vt 0.815045 0.684220
vt 0.797005 0.684220
vt 0.815045 0.714808
vt 0.797005 0.714808
vt 0.815045 0.745396
vt 0.797005 0.745396
vt 0.815045 0.775984
vt 0.797005 0.775984
vt 0.815045 0.806572
vt 0.797005 0.806572
vt 0.815045 0.837160
vt 0.797005 0.837160
vt 0.815045 0.867748
vt 0.797005 0.867748
vt 0.815045 0.898337
vt 0.797005 0.898337
vt 0.815045 0.928925
vt 0.797005 0.928925
vt 0.314365 0.180947
vt 0.314365 0.150359
vt 0.320332 0.120358
vt 0.332038 0.092099
vt 0.349031 0.066665
vt 0.370661 0.045036
vt 0.396094 0.028043
vt 0.424353 0.016337
vt 0.454354 0.010370
vt 0.484942 0.010370
vt 0.514942 0.016337
vt 0.543202 0.028043
vt 0.568635 0.045037
vt 0.590264 0.066666
vt 0.607258 0.092099
vt 0.618963 0.120358
vt 0.624931 0.150359
vt 0.624931 0.180947
vt 0.618963 0.210947
vt 0.607258 0.239207
vt 0.590264 0.264640
vt 0.568635 0.286269
vt 0.543202 0.303263
vt 0.514942 0.314968
vt 0.484942 0.320936
vt 0.454353 0.320936
vt 0.424353 0.314968
vt 0.396093 0.303263
vt 0.370660 0.286269
vt 0.349031 0.264640
vt 0.332038 0.239207
vt 0.320332 0.210947
vt 0.815045 0.959513
vt 0.797005 0.959513
vt 0.815045 0.990101
vt 0.797005 0.990101
vt 0.628375 0.543177
vt 0.616669 0.571436
vt 0.599675 0.596869
vt 0.578046 0.618498
vt 0.552613 0.635492
vt 0.524354 0.647198
vt 0.494353 0.653165
vt 0.463765 0.653165
vt 0.433765 0.647198
vt 0.405505 0.635492
vt 0.380072 0.618499
vt 0.358443 0.596869
vt 0.341449 0.571436
vt 0.329744 0.543177
vt 0.323776 0.513176
vt 0.323776 0.482588
vt 0.329744 0.452588
vt 0.341449 0.424328
vt 0.358443 0.398895
vt 0.380072 0.377266
vt 0.405505 0.360272
vt 0.433765 0.348567
vt 0.463765 0.342599
vt 0.494353 0.342599
vt 0.524353 0.348567
vt 0.552613 0.360272
vt 0.578046 0.377266
vt 0.599675 0.398895
vt 0.616669 0.424328
vt 0.628375 0.452588
vt 0.634342 0.482588
vt 0.634342 0.513176
vt 0.647313 0.010817
vt 0.739752 0.010817
vt 0.739752 0.023361
vt 0.647313 0.023361
vt 0.739752 0.035905
vt 0.647313 0.035905
vt 0.739752 0.048450
vt 0.647313 0.048450
vt 0.739752 0.060994
vt 0.647313 0.060994
vt 0.739752 0.073538
vt 0.647313 0.073538
vt 0.739752 0.086082
vt 0.647313 0.086082
vt 0.739752 0.098626
vt 0.647313 0.098626
vt 0.739752 0.111170
vt 0.647313 0.111170
vt 0.739752 0.123714
vt 0.647313 0.123714
vt 0.739752 0.136258
vt 0.647313 0.136258
vt 0.739752 0.148802
vt 0.647313 0.148802
vt 0.739752 0.161346
vt 0.647313 0.161346
vt 0.739752 0.173890
vt 0.647313 0.173890
vt 0.739752 0.186435
vt 0.647313 0.186435
vt 0.739752 0.198979
vt 0.647313 0.198979
vt 0.739752 0.211523
vt 0.647313 0.211523
vt 0.739752 0.224067
vt 0.647313 0.224067
vt 0.739752 0.236611
vt 0.647313 0.236611
vt 0.739752 0.249155
vt 0.647313 0.249155
vt 0.739752 0.261699
vt 0.647313 0.261699
vt 0.739752 0.274243
vt 0.647313 0.274243
vt 0.739752 0.286787
vt 0.647313 0.286787
vt 0.739752 0.299331
vt 0.647313 0.299331
vt 0.739752 0.311875
vt 0.647313 0.311875
vt 0.739752 0.324420
vt 0.647313 0.324420
vt 0.739752 0.336964
vt 0.647313 0.336964
vt 0.739752 0.349508
vt 0.647313 0.349508
vt 0.739752 0.362052
vt 0.647313 0.362052
vt 0.739752 0.374596
vt 0.647313 0.374596
vt 0.739752 0.387140
vt 0.647313 0.387140
vt 0.376258 0.775017
vt 0.369289 0.764587
vt 0.364488 0.752998
vt 0.362041 0.740695
vt 0.362041 0.728151
vt 0.364488 0.715848
vt 0.369289 0.704258
vt 0.376258 0.693828
vt 0.385128 0.684958
vt 0.395558 0.677989
vt 0.407147 0.673189
vt 0.419450 0.670742
vt 0.431994 0.670742
vt 0.444297 0.673189
vt 0.455887 0.677989
vt 0.466317 0.684958
vt 0.475187 0.693828
vt 0.482156 0.704258
vt 0.486956 0.715848
vt 0.489403 0.728151
vt 0.489403 0.740695
vt 0.486956 0.752998
vt 0.482156 0.764587
vt 0.475187 0.775017
vt 0.466317 0.783887
vt 0.455887 0.790856
vt 0.444297 0.795657
vt 0.431994 0.798104
vt 0.419450 0.798104
vt 0.407147 0.795657
vt 0.395558 0.790856
vt 0.385128 0.783887
vt 0.739752 0.399684
vt 0.647313 0.399684
vt 0.739752 0.412228
vt 0.647313 0.412228
vt 0.215220 0.673563
vt 0.217667 0.661260
vt 0.222468 0.649671
vt 0.229437 0.639241
vt 0.238307 0.630371
vt 0.248737 0.623402
vt 0.260326 0.618602
vt 0.272629 0.616154
vt 0.285173 0.616154
vt 0.297476 0.618602
vt 0.309066 0.623402
vt 0.319496 0.630371
vt 0.328366 0.639241
vt 0.335335 0.649671
vt 0.340135 0.661260
vt 0.342582 0.673563
vt 0.342582 0.686108
vt 0.340135 0.698411
vt 0.335335 0.710000
vt 0.328366 0.720430
vt 0.319496 0.729300
vt 0.309066 0.736269
vt 0.297476 0.741069
vt 0.285173 0.743517
vt 0.272629 0.743517
vt 0.260326 0.741069
vt 0.248737 0.736269
vt 0.238307 0.729300
vt 0.229437 0.720430
vt 0.222468 0.710000
vt 0.217667 0.698411
vt 0.215220 0.686107
s 1
usemtl マテリアル
f 1/1/1 2/2/2 4/3/4 3/4/3
f 3/4/3 4/3/4 6/5/6 5/6/5
f 5/6/5 6/5/6 8/7/8 7/8/7
f 7/8/7 8/7/8 10/9/10 9/10/9
f 9/10/9 10/9/10 12/11/12 11/12/11
f 11/12/11 12/11/12 14/13/14 13/14/13
f 13/14/13 14/13/14 16/15/16 15/16/15
f 15/16/15 16/15/16 18/17/18 17/18/17
f 17/18/17 18/17/18 20/19/20 19/20/19
f 19/20/19 20/19/20 22/21/22 21/22/21
f 21/22/21 22/21/22 24/23/24 23/24/23
f 23/24/23 24/23/24 26/25/26 25/26/25
f 25/26/25 26/25/26 28/27/28 27/28/27
f 27/28/27 28/27/28 30/29/30 29/30/29
f 29/30/29 30/29/30 32/31/32 31/32/31
f 31/32/31 32/31/32 34/33/34 33/34/33
f 33/34/33 34/33/34 36/35/36 35/36/35
f 35/36/35 36/35/36 38/37/38 37/38/37
f 37/38/37 38/37/38 40/39/40 39/40/39
f 39/40/39 40/39/40 42/41/42 41/42/41
f 41/42/41 42/41/42 44/43/44 43/44/43
f 43/44/43 44/43/44 46/45/46 45/46/45
f 45/46/45 46/45/46 48/47/48 47/48/47
f 47/48/47 48/47/48 50/49/50 49/50/49
f 49/50/49 50/49/50 52/51/52 51/52/51
f 51/52/51 52/51/52 54/53/54 53/54/53
f 53/54/53 54/53/54 56/55/56 55/56/55
f 55/56/55 56/55/56 58/57/58 57/58/57
f 57/58/57 58/57/58 60/59/60 59/60/59
f 59/60/59 60/59/60 62/61/62 61/62/61
f 4/63/4 2/64/2 64/65/64 62/66/62 60/67/60 58/68/58 56/69/56 54/70/54 52/71/52 50/72/50 48/73/48 46/74/46 44/75/44 42/76/42 40/77/40 38/78/38 36/79/36 34/80/34 32/81/32 30/82/30 28/83/28 26/84/26 24/85/24 22/86/22 20/87/20 18/88/18 16/89/16 14/90/14 12/91/12 10/92/10 8/93/8 6/94/6
f 61/62/61 62/61/62 64/95/64 63/96/63
f 63/96/63 64/95/64 2/97/2 1/98/1
f 1/99/1 3/100/3 5/101/5 7/102/7 9/103/9 11/104/11 13/105/13 15/106/15 17/107/17 19/108/19 21/109/21 23/110/23 25/111/25 27/112/27 29/113/29 31/114/31 33/115/33 35/116/35 37/117/37 39/118/39 41/119/41 43/120/43 45/121/45 47/122/47 49/123/49 51/124/51 53/125/53 55/126/55 57/127/57 59/128/59 61/129/61 63/130/63
f 65/131/65 66/132/66 68/133/68 67/134/67
f 67/134/67 68/133/68 70/135/70 69/136/69
f 69/136/69 70/135/70 72/137/72 71/138/71
f 71/138/71 72/137/72 74/139/74 73/140/73
f 73/140/73 74/139/74 76/141/76 75/142/75
f 75/142/75 76/141/76 78/143/78 77/144/77
f 77/144/77 78/143/78 80/145/80 79/146/79
f 79/146/79 80/145/80 82/147/82 81/148/81
f 81/148/81 82/147/82 84/149/84 83/150/83
f 83/150/83 84/149/84 86/151/86 85/152/85
f 85/152/85 86/151/86 88/153/88 87/154/87
f 87/154/87 88/153/88 90/155/90 89/156/89
f 89/156/89 90/155/90 92/157/92 91/158/91
f 91/158/91 92/157/92 94/159/94 93/160/93
f 93/160/93 94/159/94 96/161/96 95/162/95
f 95/162/95 96/161/96 98/163/98 97/164/97
f 97/164/97 98/163/98 100/165/100 99/166/99
f 99/166/99 100/165/100 102/167/102 101/168/101
f 101/168/101 102/167/102 104/169/104 103/170/103
f 103/170/103 104/169/104 106/171/106 105/172/105
f 105/172/105 106/171/106 108/173/108 107/174/107
f 107/174/107 108/173/108 110/175/110 109/176/109
f 109/176/109 110/175/110 112/177/112 111/178/111
f 111/178/111 112/177/112 114/179/114 113/180/113
f 113/180/113 114/179/114 116/181/116 115/182/115
f 115/182/115 116/181/116 118/183/118 117/184/117
f 117/184/117 118/183/118 120/185/120 119/186/119
f 119/186/119 120/185/120 122/187/122 121/188/121
f 121/188/121 122/187/122 124/189/124 123/190/123
f 123/190/123 124/189/124 126/191/126 125/192/125
f 68/193/68 66/194/66 128/195/128 126/196/126 124/197/124 122/198/122 120/199/120 118/200/118 116/201/116 114/202/114 112/203/112 110/204/110 108/205/108 106/206/106 104/207/104 102/208/102 100/209/100 98/210/98 96/211/96 94/212/94 92/213/92 90/214/90 88/215/88 86/216/86 84/217/84 82/218/82 80/219/80 78/220/78 76/221/76 74/222/74 72/223/72 70/224/70
f 125/192/125 126/191/126 128/225/128 127/226/127
f 127/226/127 128/225/128 66/227/66 65/228/65
f 65/229/65 67/230/67 69/231/69 71/232/71 73/233/73 75/234/75 77/235/77 79/236/79 81/237/81 83/238/83 85/239/85 87/240/87 89/241/89 91/242/91 93/243/93 95/244/95 97/245/97 99/246/99 101/247/101 103/248/103 105/249/105 107/250/107 109/251/109 111/252/111 113/253/113 115/254/115 117/255/117 119/256/119 121/257/121 123/258/123 125/259/125 127/260/127
f 129/261/65 130/262/66 132/263/68 131/264/67
f 131/264/67 132/263/68 134/265/70 133/266/69
f 133/266/69 134/265/70 136/267/72 135/268/71
f 135/268/71 136/267/72 138/269/74 137/270/73
f 137/270/73 138/269/74 140/271/76 139/272/75
f 139/272/75 140/271/76 142/273/78 141/274/77
f 141/274/77 142/273/78 144/275/80 143/276/79
f 143/276/79 144/275/80 146/277/82 145/278/81
f 145/278/81 146/277/82 148/279/84 147/280/83
f 147/280/83 148/279/84 150/281/86 149/282/85
f 149/282/85 150/281/86 152/283/88 151/284/87
f 151/284/87 152/283/88 154/285/90 153/286/89
f 153/286/89 154/285/90 156/287/92 155/288/91
f 155/288/91 156/287/92 158/289/94 157/290/93
f 157/290/93 158/289/94 160/291/96 159/292/95
f 159/292/95 160/291/96 162/293/98 161/294/97
f 161/294/97 162/293/98 164/295/100 163/296/99
f 163/296/99 164/295/100 166/297/102 165/298/101
f 165/298/101 166/297/102 168/299/104 167/300/103
f 167/300/103 168/299/104 170/301/106 169/302/105
f 169/302/105 170/301/106 172/303/108 171/304/107
f 171/304/107 172/303/108 174/305/110 173/306/109
f 173/306/109 174/305/110 176/307/112 175/308/111
f 175/308/111 176/307/112 178/309/114 177/310/113
f 177/310/113 178/309/114 180/311/116 179/312/115
f 179/312/115 180/311/116 182/313/118 181/314/117
f 181/314/117 182/313/118 184/315/120 183/316/119
f 183/316/119 184/315/120 186/317/122 185/318/121
f 185/318/121 186/317/122 188/319/124 187/320/123
f 187/320/123 188/319/124 190/321/126 189/322/125
f 132/323/68 130/324/66 192/325/128 190/326/126 188/327/124 186/328/122 184/329/120 182/330/118 180/331/116 178/332/114 176/333/112 174/334/110 172/335/108 170/336/106 168/337/104 166/338/102 164/339/100 162/340/98 160/341/96 158/342/94 156/343/92 154/344/90 152/345/88 150/346/86 148/347/84 146/348/82 144/349/80 142/350/78 140/351/76 138/352/74 136/353/72 134/354/70
f 189/322/125 190/321/126 192/355/128 191/356/127
f 191/356/127 192/355/128 130/357/66 129/358/65
f 129/359/65 131/360/67 133/361/69 135/362/71 137/363/73 139/364/75 141/365/77 143/366/79 145/367/81 147/368/83 149/369/85 151/370/87 153/371/89 155/372/91 157/373/93 159/374/95 161/375/97 163/376/99 165/377/101 167/378/103 169/379/105 171/380/107 173/381/109 175/382/111 177/383/113 179/384/115 181/385/117 183/386/119 185/387/121 187/388/123 189/389/125 191/390/127
